<svg xmlns="http://www.w3.org/2000/svg" viewBox="0 0 100 100"><defs><clipPath id="s5t8lj"><path d="M57.6 64.3c6.1 5.4 9.9 13.2 9.9 22v.7h44v-.7c0-40.3-32.5-73-72.7-73.3v20.1l9.5 25.6c.1.1 6.6 3.2 9.3 5.6"/></clipPath></defs><path fill="#ffb6bb" d="M54.6 67.563c-1.2 0-2.2-.8-2.5-2-.3-1.4.6-2.7 2-2.9l.3-.1c.3-.2 1.3-1.6 1.5-5.8.1-4.4-.8-9.9-2.5-15.6-1.7-5.7-4.1-10.8-6.6-14.4-2.4-3.4-4-4.1-4.4-4l-.3.1c-1.3.5-2.7-.1-3.3-1.3-.5-1.3.1-2.7 1.3-3.3l.5-.2c.1 0 .2-.1.3-.1 2.2-.7 5.7-.2 10 5.9 2.8 4 5.4 9.6 7.3 15.8 1.9 6.2 2.8 12.3 2.7 17.2-.2 7.4-2.9 9.8-5.1 10.4-.1 0-.2 0-.3.1l-.4.2h-.5z"><animateTransform attributeName="transform" dur="1" repeatCount="indefinite" values="0;0 3;0"/></path><g clip-path="url(#s5t8lj)"><path fill="#ffe691" d="M93.665 96.475q1.657 3.648.516 6.615t-4.674 4.703-5.06 3.852-1.693 6.135-2.618 6.092-6.316 1.993-6.28 1.057-4.342 4.648-5.147 4.18-6.524-1.179-6.049-1.97-6.002 2.098T32.974 136t-5.236-4.07-4.432-4.559-6.292-.94-6.363-1.86-2.737-6.039-1.809-6.097-5.146-3.752-4.76-4.605.379-6.62 1.226-6.245-2.805-5.706-2.08-6.296 3.416-5.687 3.994-4.956.164-6.362 1.089-6.535 5.664-3.452 5.836-2.528 3.098-5.557 3.999-5.284 6.623-.42 6.342.467 5.329-3.47 6-2.828 6.05 2.701 5.402 3.37 6.337-.602 6.62.287 4.104 5.211 3.217 5.485 5.883 2.415 5.738 3.335 1.217 6.514.29 6.356 4.091 4.869 3.525 5.619T95 84.492t-2.695 5.766 1.36 6.217zm-21.9-5.163q-.299-1.736-.034-3.338t.766-3.25.358-3.389-1.222-3.185-1.577-2.94-.84-3.24-1.257-3.163-2.562-2.248-2.764-1.874-2.243-2.471-2.588-2.223-3.315-.803-3.313-.37-3.13-1.149-3.324-.763-3.309.833-3.11 1.208-3.31.442-3.297.867-2.538 2.268-2.198 2.523-2.725 1.926-2.516 2.304-1.194 3.19-.767 3.252-1.522 2.97-1.167 3.207.436 3.38.829 3.237.035 3.337.457 3.375 1.96 2.805 2.232 2.468 1.587 2.943 1.975 2.777 3.032 1.568 3.127 1.159 2.776 1.867 3.038 1.538 3.405-.02 3.317-.43 3.316.361 3.412-.048 3.008-1.602 2.735-1.924 3.1-1.21 3.006-1.634 1.917-2.816 1.522-2.97 2.188-2.525 1.9-2.83z"><animateTransform attributeName="transform" dur=".5" repeatCount="indefinite" type="rotate" values="0 45 85;27 45 85"/></path><path fill="#95d5ee" d="M83.764 102.424q.9 3.924-.85 6.624t-5.626 3.589-5.845 2.515-3.257 5.465-4.292 5.11-6.68-.02-6.269-1.054-5.687 2.849-6.382 1.977-5.606-3.627-4.71-4.277-6.326-.684-6.434-1.784-2.758-6.086-1.645-6.145-4.95-3.99T2 97.906t.972-6.602 1.926-6.064-2-6.04-1.05-6.59 4.39-5.033 4.903-4.056 1.572-6.157 2.684-6.117 6.418-1.863 6.307-.761 4.664-4.328T38.35 40.6t6.393 1.898 5.728 2.772 6.26-1.122 6.678-.1 4.358 5.06 3.317 5.428 5.875 2.443 5.664 3.522.93 6.612-.14 6.362 3.617 5.222 2.867 6.036-2.793 6.068-3.561 5.263.222 6.36zm-13.681-6.15q.148-2.038.776-3.85t1.388-3.673.85-3.916-.904-3.915-1.426-3.656-.82-3.833-1.4-3.765-2.877-2.795-3.175-2.304-2.769-2.791-3.205-2.406-3.927-.8-3.926-.219-3.83-.844-4-.297-3.745 1.453-3.412 1.93T30 61.955t-3.529 1.923-2.364 3.235-1.826 3.477-2.364 3.136-1.922 3.522-.242 4.002.349 3.907-.295 3.924.276 3.994 1.97 3.495 2.407 3.11 1.87 3.45 2.393 3.214 3.55 1.881 3.698 1.311 3.435 1.895 3.765 1.407 3.991-.344 3.822-.891 3.923-.265 3.922-.846T60 108.046t2.74-2.826 3.153-2.332 2.832-2.838z"><animateTransform attributeName="transform" dur="1" repeatCount="indefinite" type="rotate" values="0 45 85;32 45 85"/></path><path fill="#585872" d="M79.005 96.818q.579 3.695-.992 6.6t-5.1 4.316-5.548 3.142-3.91 5.036-5.01 4.42-6.679.03T45.5 119.2t-6.234 1.337-6.675.168-5.133-4.272-4.06-4.915-5.637-2.975-5.222-4.166-1.187-6.574.056-6.375-2.404-5.906-1.324-6.548 3.315-5.792 4.142-4.85 1.95-6.066 3.192-5.867 6.266-2.31 6.294-1.053 5.395-3.397 6.214-2.435 6.286 2.259 5.494 3.232 6.314.872 6.332 2.126 3.365 5.764 2.124 6.01 4.285 4.73 3.482 5.699-1.134 6.582-2.233 5.968.242 6.372zm-8.03-2.79q.07-2.453.58-4.743t.942-4.69.106-4.876-1.897-4.502-2.608-4.009-2.29-4.194-3.06-3.805-4.343-2.219-4.574-1.4-4.456-1.738-4.782-.953-4.761 1.087-4.398 1.87-4.532 1.527-4.28 2.355-2.94 3.89-2.17 4.264-2.488 4.08-1.762 4.554.24 4.88 1.074 4.65.718 4.727 1.579 4.625 3.32 3.578 3.818 2.873 3.584 3.15 4.18 2.534 4.85.605 4.766-.249 4.777.115 4.823-.748 4.107-2.649 3.495-3.263 3.726-2.982 3.215-3.679z"><animateTransform attributeName="transform" dur=".5" repeatCount="indefinite" type="rotate" values="0 45 85;40 45 85"/></path><path fill="#9e4446" d="M69.023 103.792q-1.35 3.463-4.02 5.806t-6.51 2.754-6.705 1.154-6.502 1.998-7.053.463-6.209-3.36-5.077-4.53-5.619-3.836-4.755-5.218-1.249-6.957.374-6.792-.494-6.785 1.106-6.981 4.667-5.3 5.537-3.946 4.993-4.614 6.15-3.48 7.057.328 6.541 1.88 6.72 1.016 6.557 2.64 4.14 5.727 2.605 6.278 3.399 5.897 2.017 6.77-1.897 6.807-3.276 5.957-2.497 6.324zm-3.544-2.772q1.12-2.73 2.504-5.215t2.421-5.253 1.194-5.795-1.304-5.782-2.517-5.206T65.18 68.6t-3.79-4.552-5.331-2.583-5.642-1.277-5.659-1.19-5.925.126-5.337 2.554-4.517 3.615-4.458 3.686-3.592 4.706-1.333 5.762.002 5.792.108 5.785 1.436 5.744 3.678 4.63 4.53 3.607 4.591 3.528 5.38 2.456 5.92.01 5.642-1.287 5.621-1.392 5.272-2.682z"><animateTransform attributeName="transform" dur="1" repeatCount="indefinite" type="rotate" values="0 45 85;51 45 85"/></path></g><path fill="#ffb6bb" d="M57.1 64.863c-.1-1.4-1.4-2.4-2.7-2.2-1.8.2-7.3-6.1-11-18.4-3.7-12.2-2.6-20.6-1-21.4 1.2-.6 1.7-2.2 1-3.4-.6-1.2-2.2-1.7-3.4-1-1.4.7-2.4 2.1-3.1 3.9-4.5 2.2-24.3 12-32.3 15.3-1.8.8-3 2.5-3.1 4.4-.4 10.6 2.6 20.2 8.8 29 1.1 1.6 3.1 2.4 5.1 2.1l28.5-6.3c-1.8-1.4-3.3-3-4.4-4.8-.2-.3-.6-.5-1-.4l-1.1.3c-1.9.6-3.9-.5-4.4-2.4-.5-1.9.7-3.8 2.5-4.3l.9-.3c.4-.1.7-.5.6-.9-.1-.5-.6-.9-1.1-.7l-8.2 2.5c-1.9.6-3.9-.5-4.4-2.5-.5-1.9.7-3.8 2.5-4.3l9.5-2.9c.4-.1.6-.5.6-.9-.1-2.6.1-5.1.7-7.4.5 2.6 1.1 5.3 1.9 7.9 3.3 10.6 9.5 21.8 15.8 21.8h.5c1.4-.1 2.4-1.4 2.3-2.7z"><animateTransform attributeName="transform" dur="1" repeatCount="indefinite" values="0;0 3;0"/></path></svg>