<svg xmlns="http://www.w3.org/2000/svg" viewBox="0 0 100 100"><g fill="none" stroke="#000"><animateTransform attributeName="transform" begin="-.1" calcMode="spline" dur="1" keySplines=".5 0 .5 1" repeatCount="indefinite" type="rotate" values="360 50 50;0 50 50"/><circle cx="50" cy="50" r="39.891" stroke="#dec17a" stroke-width="14.4"><animate attributeName="stroke-dasharray" begin="-.046" dur="1" repeatCount="indefinite" values="15 300;55 300;15 300"/></circle><circle cx="50" cy="50" r="39.891" stroke="#fff" stroke-width="7.2"><animate attributeName="stroke-dasharray" begin="-.046" dur="1" repeatCount="indefinite" values="15 300;55 300;15 300"/></circle><circle cx="50" cy="50" r="32.771"><animate attributeName="stroke-dasharray" begin="-.046" dur="1" repeatCount="indefinite" values="15 300;45 300;15 300"/></circle><circle cx="50" cy="50" r="47.171"><animate attributeName="stroke-dasharray" begin="-.046" dur="1" repeatCount="indefinite" values="15 300;66 300;15 300"/></circle></g><g fill="#dec17a" stroke="#000"><animateTransform attributeName="transform" calcMode="spline" dur="1" keySplines=".5 0 .5 1" repeatCount="indefinite" type="rotate" values="360 50 50;0 50 50"/><path d="M97.2 49.3c.1 6.3-1.1 12.6-3.4 18.4l-13.4-5.4c1.6-4 2.5-8.4 2.4-12.8"/><path fill="#fff" stroke="none" d="M93.6 49.3l-.1 3.7-.4 3.7c-.4 2.1-2.3 3.4-4.1 2.9l-.2-.1c-1.9-.5-3-2.3-2.7-4l.4-3.1.1-3.1"/><path d="M85.5 62.3c-.2.7-.5 1.4-.8 2.1l-.9 2.1c-.6 1.1-2 1.5-3.2.8-1.1-.7-1.7-2-1.1-2.9l.8-1.8c.3-.6.5-1.2.7-1.9m13.6 4.8c-.3.9-.6 1.8-1 2.7l-1.1 2.6c-.8 1.4-2.3 2-3.5 1.3-1.1-.7-1.5-2.2-.9-3.4l1-2.4c.3-.8.7-1.6.9-2.4"/></g><g fill="#dec17a"><animateTransform attributeName="transform" begin="-.1" calcMode="spline" dur="1" keySplines=".5 0 .5 1" repeatCount="indefinite" type="rotate" values="360 50 50;0 50 50"/><path stroke="#000" d="M97.2 50.3c0-5-.8-10-2.4-14.8-.4-1.2-1-2.2-1.8-3-.7-.8-1.7-1.4-2.7-1.8 0 .6-.3 1.2-.8 1.5-.8.3-1.7 0-2.1-.8l-.5-1c-.6.1-1.2.3-1.8.7-.6.3-1.1.7-1.6 1.2l.4.9c.4.7 0 1.6-.8 2-.6.3-1.2.2-1.6-.1-.4.8-.5 1.7-.7 2.5-.1.9 0 1.7.3 2.5 1 3.3 1.6 6.8 1.6 10.2"/><path fill="#fff" d="M86.4 50.4c0-1.3-.1-2.6-.2-3.8-.3-1.7 1-3.4 2.9-3.8h.3c1.9-.4 3.7 1 4 3.1.1 1.5.2 3.1.2 4.6"/><path fill="#f92" d="M93.1 34.1c.1.4-.3.8-.9 1.1-.6.2-1.2.1-1.4-.2-.1-.3.3-.8.9-1.1.7-.3 1.3-.2 1.4.2zm-11.2 4.2c.1.3.7.3 1.3.1.6-.2 1-.6.9-.9-.1-.3-.7-.3-1.3-.1-.6.2-1 .6-.9.9z"/><path fill="#f92" stroke="#000" d="M87.5 38.5l.2.7c.1.4.5.7 1 .6.4-.1.7-.6.6-1L89 38"/><path d="M88.5 36.3c.1.3-.2.7-.6.9-.5.2-.9 0-1.1-.3-.1-.3.2-.7.6-.9.5-.2 1 0 1.1.3z"/><path fill="none" stroke="#000" d="M85.8 38c.2.5.8.9 1.4.7.6-.2 1.1-.4.6-1.6.4 1.2.9 1.1 1.5.9.6-.2.9-.8.7-1.5"/><path stroke="#000" d="M86.8 42.1c.2.7.2 1.5.4 2.2.1.8.3 1.5.3 2.3.1 1.3-.9 2.3-2.3 2.3-1.3 0-2.5-.8-2.5-1.9 0-.7-.2-1.3-.3-2-.1-.7-.2-1.3-.3-2m14-2.9c.2.9.3 1.9.5 2.8.1.9.3 1.9.4 2.8.1 1.6-.9 2.9-2.2 2.9-1.3 0-2.5-1.1-2.5-2.5 0-.9-.2-1.7-.3-2.5-.1-.8-.2-1.7-.4-2.5"/><path fill="#000" d="M90.9 33.7c.2.6 0 1.3-.6 1.5-.5.2-1.2-.1-1.4-.7-.2-.6 0-1.2.6-1.5.5-.3 1.1 0 1.4.7zm-5.6 2.2c.2.5-.1 1.1-.6 1.3-.5.2-1.1 0-1.3-.5-.2-.5.1-1.1.6-1.3.5-.3 1.1 0 1.3.5z"/><path fill="#8f722f" stroke="#000" d="M83.2 34.9c.8-.3 1.1-1.2.8-2l-.5-.9c-.9.8-1.5 1.7-2 2.7.5.4 1.1.5 1.7.2zm6.4-2.9c.6-.3.9-.8.8-1.5-1.1-.4-2.3-.5-3.4-.3l.5 1c.3.8 1.3 1.1 2.1.8z"/></g></svg>