<svg xmlns="http://www.w3.org/2000/svg" viewBox="0 0 100 100"><defs><style>@keyframes s5w74c{0%,40%{transform:translate(1px,1px)}35%,5%{transform:translate(0,1px)}10%,25%,55%{transform:translate(1px,2px)}15%,50%{transform:translate(2px,1px)}20%,70%{transform:translate(3px,0)}30%{transform:translate(1px,3px)}45%,85%{transform:translate(1px,0)}60%{transform:translate(3px,1px)}65%,90%{transform:translate(0,2px)}75%{transform:translate(0,0)}80%{transform:translate(2px,3px)}95%{transform:translate(3px,2px)}}.s5w74c{stroke-width:3.5;animation:s5w74c 1s infinite}</style></defs><g fill="#f8b26a" stroke="#333"><path fill="none" d="M42.641 59.14l-11.85 20.525" class="s5w74c" style="animation-delay:-.957s"/><path fill="#e0e0e0" d="M45.834 70.616l-14.728-8.503a2.987 2.987 0 0 1-1.093-4.08l21.89-37.915 19.901 11.49-21.89 37.915a2.988 2.988 0 0 1-4.08 1.093z" class="s5w74c" style="animation-delay:-.913s"/><path stroke-linejoin="round" d="M71.804 31.608l-2.043-1.18-23.653-.272-4.172 7.226 26.359.303z" class="s5w74c" style="animation-delay:-.87s"/><path stroke-linejoin="round" d="M64.615 44.06l-26.359-.304-4.172 7.226 26.359.303z" class="s5w74c" style="animation-delay:-.826s"/><path stroke-linejoin="round" d="M30.108 57.869c-.877 1.519-.499 3.379.845 4.154l4.618 2.666 17.02.196 4.172-7.226-26.359-.303-.296.513z" class="s5w74c" style="animation-delay:-.783s"/><path fill="#e15b64" d="M80.817 40.012L40.119 16.515c-.939-.542-.637-1.968.441-2.083l28.912-3.082c.484-.052.945.215 1.142.66l11.787 26.579c.439.99-.645 1.965-1.584 1.423z" class="s5w74c" style="animation-delay:-.739s"/></g><path fill="#000" d="M32.283 80.526l6.818-11.809 5.873 3.391a4.714 4.714 0 0 0 6.432-1.723l2.677-4.637 4.172-7.226 3.681-6.375 4.172-7.226 3.68-6.374 1.262-2.186 8.908 5.143a2.835 2.835 0 0 0 3.321-.348 2.834 2.834 0 0 0 .697-3.266L72.188 11.31A2.827 2.827 0 0 0 71.013 10L30.791 79.665l1.492.861z" class="s5w74c" opacity=".2" style="animation-delay:-.696s"/><g stroke="#f5e169" stroke-linecap="round"><path d="M41.239 74.388L37.86 89.887" class="s5w74c" style="animation-delay:-.652s"/><path d="M31.135 68.035l-4.233 4.182" class="s5w74c" style="animation-delay:-.609s"/><path d="M26.847 76.813l-8.544 8.498" class="s5w74c" style="animation-delay:-.565s"/><path d="M21.464 71.286l-5.684 3.993" class="s5w74c" style="animation-delay:-.522s"/><path d="M46.07 79.971l-.71 7.531" class="s5w74c" style="animation-delay:-.478s"/><path d="M32.764 84.566L30.926 90" class="s5w74c" style="animation-delay:-.435s"/></g></svg>