<svg xmlns="http://www.w3.org/2000/svg" viewBox="0 0 100 100"><defs><pattern id="s60hrm" width="100" height="100" patternUnits="userSpaceOnUse"><path fill="#009553" d="M0 0h100v100H0z"/><g fill="#f81b24"><circle cx="21" r="2"><animateTransform attributeName="transform" begin="-1.44" dur="3" repeatCount="indefinite" values="0 145;0 -45"/></circle><circle cx="6" r="2"><animateTransform attributeName="transform" begin="-.57" dur="3" repeatCount="indefinite" values="0 144;0 -44"/></circle><circle cx="49" r="2"><animateTransform attributeName="transform" begin="-.75" dur="3" repeatCount="indefinite" values="0 150;0 -50"/></circle><circle cx="49" r="2"><animateTransform attributeName="transform" begin="-1.23" dur="3" repeatCount="indefinite" values="0 103;0 -3"/></circle><circle cx="57" r="3"><animateTransform attributeName="transform" begin="-1.8" dur="3" repeatCount="indefinite" values="0 127;0 -27"/></circle><circle cx="62" r="3"><animateTransform attributeName="transform" begin="-1.98" dur="3" repeatCount="indefinite" values="0 105;0 -5"/></circle><circle cx="26" r="3"><animateTransform attributeName="transform" begin="-2.4" dur="3" repeatCount="indefinite" values="0 153;0 -53"/></circle><circle cx="5" r="2"><animateTransform attributeName="transform" begin="-2.7" dur="3" repeatCount="indefinite" values="0 133;0 -33"/></circle><circle cx="23" r="2"><animateTransform attributeName="transform" begin="-1.35" dur="3" repeatCount="indefinite" values="0 131;0 -31"/></circle><circle cx="33" r="2"><animateTransform attributeName="transform" begin="-.72" dur="3" repeatCount="indefinite" values="0 142;0 -42"/></circle><circle cx="100" r="2"><animateTransform attributeName="transform" begin="-1.14" dur="3" repeatCount="indefinite" values="0 126;0 -26"/></circle><circle cx="54" r="2"><animateTransform attributeName="transform" begin="-1.11" dur="3" repeatCount="indefinite" values="0 108;0 -8"/></circle><circle cx="27" r="3"><animateTransform attributeName="transform" begin="-.72" dur="3" repeatCount="indefinite" values="0 151;0 -51"/></circle><circle cx="88" r="2"><animateTransform attributeName="transform" begin="-2.76" dur="3" repeatCount="indefinite" values="0 120;0 -20"/></circle><circle cx="75" r="3"><animateTransform attributeName="transform" begin="-.33" dur="3" repeatCount="indefinite" values="0 134;0 -34"/></circle><circle cx="83" r="2"><animateTransform attributeName="transform" begin="-.24" dur="3" repeatCount="indefinite" values="0 143;0 -43"/></circle><circle cx="63" r="2"><animateTransform attributeName="transform" begin="-2.25" dur="3" repeatCount="indefinite" values="0 113;0 -13"/></circle><circle cx="82" r="3"><animateTransform attributeName="transform" begin="-.33" dur="3" repeatCount="indefinite" values="0 104;0 -4"/></circle><circle cx="34" r="3"><animateTransform attributeName="transform" begin="-.96" dur="3" repeatCount="indefinite" values="0 140;0 -40"/></circle><circle cx="86" r="3"><animateTransform attributeName="transform" begin="-.51" dur="3" repeatCount="indefinite" values="0 139;0 -39"/></circle><circle cx="38" r="2"><animateTransform attributeName="transform" begin="-1.65" dur="3" repeatCount="indefinite" values="0 111;0 -11"/></circle><circle cx="99" r="3"><animateTransform attributeName="transform" begin="-1.17" dur="3" repeatCount="indefinite" values="0 142;0 -42"/></circle><circle cx="80" r="2"><animateTransform attributeName="transform" begin="-2.85" dur="3" repeatCount="indefinite" values="0 103;0 -3"/></circle><circle cx="43" r="2"><animateTransform attributeName="transform" begin="-.21" dur="3" repeatCount="indefinite" values="0 145;0 -45"/></circle><circle cx="72" r="3"><animateTransform attributeName="transform" begin="-.45" dur="3" repeatCount="indefinite" values="0 134;0 -34"/></circle><circle cx="86" r="3"><animateTransform attributeName="transform" begin="-.72" dur="3" repeatCount="indefinite" values="0 133;0 -33"/></circle><circle cx="4" r="3"><animateTransform attributeName="transform" begin="-.54" dur="3" repeatCount="indefinite" values="0 146;0 -46"/></circle><circle cx="72" r="2"><animateTransform attributeName="transform" begin="-.93" dur="3" repeatCount="indefinite" values="0 121;0 -21"/></circle><circle cx="99" r="2"><animateTransform attributeName="transform" begin="-.45" dur="3" repeatCount="indefinite" values="0 133;0 -33"/></circle><circle cx="71" r="2"><animateTransform attributeName="transform" begin="-1.92" dur="3" repeatCount="indefinite" values="0 139;0 -39"/></circle><circle cx="38" r="2"><animateTransform attributeName="transform" begin="-.36" dur="3" repeatCount="indefinite" values="0 144;0 -44"/></circle><circle cx="4" r="2"><animateTransform attributeName="transform" begin="-2.52" dur="3" repeatCount="indefinite" values="0 112;0 -12"/></circle><circle cx="56" r="2"><animateTransform attributeName="transform" begin="-.69" dur="3" repeatCount="indefinite" values="0 130;0 -30"/></circle><circle cx="30" r="2"><animateTransform attributeName="transform" begin="-1.95" dur="3" repeatCount="indefinite" values="0 131;0 -31"/></circle><circle cx="43" r="2"><animateTransform attributeName="transform" begin="-.09" dur="3" repeatCount="indefinite" values="0 150;0 -50"/></circle><circle cx="92" r="2"><animateTransform attributeName="transform" begin="-1.32" dur="3" repeatCount="indefinite" values="0 126;0 -26"/></circle><circle cx="68" r="3"><animateTransform attributeName="transform" begin="-.09" dur="3" repeatCount="indefinite" values="0 132;0 -32"/></circle><circle cx="96" r="2"><animateTransform attributeName="transform" begin="-1.56" dur="3" repeatCount="indefinite" values="0 133;0 -33"/></circle><circle cx="10" r="2"><animateTransform attributeName="transform" begin="-.48" dur="3" repeatCount="indefinite" values="0 151;0 -51"/></circle><circle cx="59" r="3"><animateTransform attributeName="transform" begin="-1.68" dur="3" repeatCount="indefinite" values="0 128;0 -28"/></circle><circle cx="53" r="3"><animateTransform attributeName="transform" begin="-.33" dur="3" repeatCount="indefinite" values="0 124;0 -24"/></circle><circle cx="62" r="2"><animateTransform attributeName="transform" begin="-2.58" dur="3" repeatCount="indefinite" values="0 110;0 -10"/></circle><circle cx="20" r="3"><animateTransform attributeName="transform" begin="-.6" dur="3" repeatCount="indefinite" values="0 145;0 -45"/></circle><circle cx="17" r="3"><animateTransform attributeName="transform" begin="-2.49" dur="3" repeatCount="indefinite" values="0 128;0 -28"/></circle><circle cx="89" r="2"><animateTransform attributeName="transform" begin="-2.49" dur="3" repeatCount="indefinite" values="0 130;0 -30"/></circle><circle cx="45" r="3"><animateTransform attributeName="transform" begin="-2.16" dur="3" repeatCount="indefinite" values="0 144;0 -44"/></circle><circle cx="95" r="2"><animateTransform attributeName="transform" begin="-1.14" dur="3" repeatCount="indefinite" values="0 141;0 -41"/></circle><circle cx="77" r="3"><animateTransform attributeName="transform" begin="-1.62" dur="3" repeatCount="indefinite" values="0 149;0 -49"/></circle><circle cx="51" r="3"><animateTransform attributeName="transform" begin="-2.55" dur="3" repeatCount="indefinite" values="0 126;0 -26"/></circle><circle cx="78" r="3"><animateTransform attributeName="transform" begin="-2.82" dur="3" repeatCount="indefinite" values="0 129;0 -29"/></circle></g></pattern></defs><path fill="url(#s60hrm)" d="M59 37.3V18.9c3-.8 5.1-3.6 5.1-6.8 0-3.9-3.1-7.1-7-7.1H42.9c-3.9 0-7.1 3.2-7.1 7.1 0 3.2 2.2 6 5.1 6.8v18.4c-11.9 3.8-20.6 15-20.6 28.2C20.4 81.8 33.7 95 50 95s29.6-13.2 29.6-29.6c0-13.2-8.7-24.3-20.6-28.1z" clip-path="path('M0 45h100v90H0z')"/><path fill="none" stroke="#a8d8b9" stroke-width="5" d="M59 37.3V18.9c3-.8 5.1-3.6 5.1-6.8 0-3.9-3.1-7.1-7-7.1H42.9c-3.9 0-7.1 3.2-7.1 7.1 0 3.2 2.2 6 5.1 6.8v18.4c-11.9 3.8-20.6 15-20.6 28.2C20.4 81.8 33.7 95 50 95s29.6-13.2 29.6-29.6c0-13.2-8.7-24.3-20.6-28.1z"/></svg>