<svg xmlns="http://www.w3.org/2000/svg" viewBox="0 0 100 100"><defs><style>@keyframes s5wknx{to{transform:rotate(360deg)}}.s5wknx{animation:s5wknx 3s linear infinite}</style><path id="s5wke1" d="M37.35-7h10V7h-10a38 38 0 0 1-5.99 14.46l7.071 7.072-9.9 9.899-7.07-7.071A38 38 0 0 1 7 37.35v10H-7v-10a38 38 0 0 1-14.46-5.99l-7.072 7.071-9.899-9.9 7.071-7.07A38 38 0 0 1-37.35 7h-10V-7h10a38 38 0 0 1 5.99-14.46l-7.071-7.072 9.9-9.899 7.07 7.071A38 38 0 0 1-7-37.35v-10H7v10a38 38 0 0 1 14.46 5.99l7.072-7.071 9.899 9.9-7.071 7.07A38 38 0 0 1 37.35-7M0-23a23 23 0 1 0 0 46 23 23 0 1 0 0-46"/></defs><g transform="matrix(.5 0 0 .5 33 33)"><use fill="#abbd81" class="s5wknx" href="#s5wke1" style="animation-delay:-.17s"/></g><g transform="matrix(.4 0 0 .4 50 72)"><use fill="#e15b64" class="s5wknx" href="#s5wke1" style="transform:rotate(720deg)"/></g><g transform="matrix(.3 0 0 .3 78 54)"><use fill="#f8b26a" class="s5wknx" href="#s5wke1"/></g></svg>