<svg xmlns="http://www.w3.org/2000/svg" viewBox="0 0 100 100"><g transform="translate(50 50)"><g transform="scale(1 -1)"><g transform="translate(-50 -50)"><g fill="none" stroke="#f2f2f2"><animateTransform attributeName="transform" calcMode="spline" dur="1" keySplines=".5 0 .5 1" repeatCount="indefinite" type="rotate" values="-2 50 50;359 50 50"/><circle cx="50" cy="50" r="39.891" stroke-width="14.4"><animate attributeName="stroke-dasharray" dur="1" repeatCount="indefinite" values="10 300;60 300;4 300"/></circle><circle cx="50" cy="50" r="39.891" stroke-width="7.2"><animate attributeName="stroke-dasharray" dur="1" repeatCount="indefinite" values="10 300;60 300;4 300"/></circle><circle cx="50" cy="50" r="32.771" stroke="#000"><animate attributeName="stroke-dasharray" dur="1" repeatCount="indefinite" values="10 300;49 300;4 300"/></circle><circle cx="50" cy="50" r="47.171" stroke="#000"><animate attributeName="stroke-dasharray" dur="1" repeatCount="indefinite" values="10 300;72 300;4 300"/></circle></g></g></g></g><g><animateTransform attributeName="transform" calcMode="spline" dur="1" keySplines=".5 0 .5 1" repeatCount="indefinite" type="rotate" values="360 50 50;0 50 50"/><path fill="#f2f2f2" stroke="#000" d="M82.8 50c0 .9.7 2.6 1.8 3.7.3.3.8.6 1 1 .2.5.2 1-.1 1.5-.3.5-.8.9-1.1 1.3-.5.5-.8 1.1-.9 1.7-.2.6-.2 1.2.2 1.8.6 1 2 1.7 2 2.8-.1.9-1 1.5-1.4 2.2-.3.6-.4 1.2-.2 1.9s.5 1.3 1 1.8c1 1 2.4 1.4 3.9 1.5-1.1-1-1.2-2.7-.5-4 .7-1.2 2.2-1.9 2.5-3.3.2-1.2-.4-2.5.1-3.6.7-1.5 3.3-1.3 4.1-2.9.3-.9 0-1.9.3-2.8.2-.7.6-1.1 1-1.5.4-.4.8-.9.9-1.6.1-.5.1-.9.1-1.6"/></g><g fill="#f2f2f2"><animateTransform attributeName="transform" begin="-.1" calcMode="spline" dur="1" keySplines=".5 0 .5 1" repeatCount="indefinite" type="rotate" values="360 50 50;0 50 50"/><path stroke="#000" d="M82.8 50c-.1-3.1-.4-6.2-1.3-9.2-.1-.4-.2-.8-.2-1.2-.1-.4-.1-.8 0-1.2.1-.8.3-1.6.7-2.4.8-1.5 2-3 3.8-3.9 1.8-.9 3.8-1 5.6-.2.9.4 1.7 1 2.4 1.8.3.4.7.8 1 1.3.2.5.4 1 .6 1.6 1.4 4.3 1.9 8.8 1.9 13.3"/><path fill="#ff7bac" d="M93.6 35.5c.1.4-.3.8-1 1-.6.2-1.2.1-1.3-.3-.1-.3.3-.8.9-1s1.3-.1 1.4.3zm-11.3 3.8c.1.3.6.3 1.3.1.6-.2 1.1-.6 1-.9-.1-.3-.7-.3-1.3-.1-.7.2-1.1.6-1 .9z"/><path fill="#000" d="M88.9 37.5c.1.3-.2.7-.7.8-.5.1-.9 0-1-.3-.1-.3.2-.7.7-.8.5-.2 1 0 1 .3z"/><path fill="none" stroke="#000" d="M86.2 39.6c.2.6.8.9 1.4.7.6-.2.9-.9.6-2.1.3 1.2 1 1.7 1.6 1.5.6-.2 1-.8.8-1.4"/><path stroke="#000" d="M82.5 45.9c0 .5.1.9.5 1.3s1 .6 1.6.3c.3-.1.5-.3.7-.4.5-.2 1.2.1 1.5.6.3.5.3 1 .3 1.6.6-.6 1-1.4 1.3-2.2.2-.7.4-1.5.2-2.2-.2-.7-.8-1.3-1.5-1.5-.9-.2-1.8.2-2.5.7m12.2 0c.1.7.1 1.4-.2 2-.3.6-.9 1-1.5.7-.3-.1-.5-.4-.8-.4-.6-.2-1.2.3-1.4.9-.2.6-.1 1.2-.1 1.9-.6-.7-1.2-1.5-1.6-2.3-.4-.7-.6-1.5-.6-2.2 0-.8.3-1.6.9-2 .7-.5 1.7-.5 2.6-.1"/><path fill="#b5b5b5" d="M85.3 37.2c.1.3 1.2.2 2.5-.3 1.3-.4 2.2-1.1 2.1-1.4-.1-.3-1.2-.2-2.5.3s-2.2 1.1-2.1 1.4z"/><path fill="#000" d="M91.5 35c.3.7 0 1.4-.7 1.6-.6.2-1.3-.1-1.6-.8-.2-.6.1-1.3.7-1.6.7-.3 1.4.1 1.6.8zm-5.6 2c.2.6-.1 1.2-.7 1.4-.6.2-1.3-.1-1.5-.6-.2-.5.1-1.2.7-1.4.6-.2 1.3 0 1.5.6z"/><path fill="none" stroke="#000" d="M89.7 29c.4.7-1.4 2.2-3.8 3.4-2.5 1.2-4.7 1.7-4.9 1.2-.3-.5 1.4-2 3.8-3.4s4.6-1.8 4.9-1.2z"/></g></svg>