<svg xmlns="http://www.w3.org/2000/svg" viewBox="0 0 100 100"><defs><style>@keyframes s5wmy3{50%{transform:scale(1.06)}}.s5wmy3{transform:scale(.86);transform-origin:center;animation:s5wmy3 1s infinite}</style></defs><path fill="#e15b64" d="M12.5 38.5c0 1.9.2 3.8.5 5.7l26.9-26.9c-11.1-4.5-27.4 2.8-27.4 21.2z" class="s5wmy3" style="animation-delay:-.955s"/><path fill="#f47e60" d="M39.9 17.3L13 44.2c.8 4.4 2.5 8.4 4.7 12.2l30.7-30.7c-1.7-4.2-4.8-7-8.5-8.4z" class="s5wmy3" style="animation-delay:-.909s"/><path fill="#f8b26a" d="M50 33.6c0-3.1-.6-5.7-1.5-8L17.7 56.4c2.1 3.5 4.6 6.7 7.3 9.6l48.7-48.7C63.1 13.3 50 18.6 50 33.6z" class="s5wmy3" style="animation-delay:-.864s"/><path fill="#abbd81" d="M73.8 17.2L25.1 65.9c2.9 3 5.9 5.7 8.9 8l49.4-49.4c-2.5-3.5-5.9-5.9-9.6-7.3z" class="s5wmy3" style="animation-delay:-.818s"/><path fill="#a0c8d7" d="M34 73.9c3.7 2.9 7.2 5.2 10.1 6.8l43.4-43.4c-.2-5.2-1.8-9.5-4.1-12.8L34 73.9z" class="s5wmy3" style="animation-delay:-.773s"/><path fill="#ac749c" d="M50 84s37.5-17.7 37.5-45.5v-1.2L44 80.8c3.6 2.1 6 3.2 6 3.2z" class="s5wmy3" style="animation-delay:-.727s"/><g fill="#f5e6c8"><path d="M51.6 42.4l-6.2-.4c-4.8-.3-8.6-4.2-8.9-9l-.5-7.3c0-.4-.4-.8-.8-.8H35c-.4 0-.8.3-.8.8l-.4 7.2c-.3 4.8-4.1 8.7-8.9 9l-6.2.4c-.4 0-.7.3-.8.7-.1.5.3.9.8 1l6.3.4c4.8.3 8.6 4.2 8.9 9l.4 7.2c0 .4.4.8.8.8h.2c.4 0 .8-.3.8-.8l.4-7.2c.3-4.8 4.1-8.7 8.9-9l6.3-.4c.5 0 .9-.5.8-1-.2-.3-.5-.6-.9-.6z" class="s5wmy3" style="animation-delay:-.682s"/><path d="M32.3 76.6l-3.7-.3c-2.9-.2-5.2-2.5-5.4-5.4l-.3-4.3c0-.3-.2-.5-.5-.5h-.1c-.3 0-.5.2-.5.5l-.3 4.3c-.2 2.9-2.5 5.2-5.4 5.4l-3.7.3c-.2 0-.4.2-.5.4-.1.3.2.6.5.6l3.8.3c2.9.2 5.2 2.5 5.4 5.4l.3 4.3c0 .3.2.5.5.5h.1c.3 0 .5-.2.5-.5l.3-4.3c.2-2.9 2.5-5.2 5.4-5.4l3.8-.3c.3 0 .5-.3.5-.6-.3-.2-.5-.4-.7-.4z" class="s5wmy3" style="animation-delay:-.636s"/><path d="M68.5 69l-2.3-.2c-1.8-.1-3.2-1.6-3.4-3.4l-.2-2.7c0-.2-.1-.3-.3-.3h-.1c-.2 0-.3.1-.3.3l-.2 2.7c-.1 1.8-1.5 3.3-3.4 3.4l-2.2.2c-.1 0-.3.1-.3.3 0 .2.1.4.3.4l2.4.2c1.8.1 3.2 1.6 3.4 3.4l.2 2.7c0 .2.1.3.3.3h.1c.2 0 .3-.1.3-.3l.2-2.7c.1-1.8 1.5-3.3 3.4-3.4l2.4-.2c.2 0 .3-.2.3-.4-.3-.2-.4-.3-.6-.3z" class="s5wmy3" style="animation-delay:-.591s"/><path d="M84.9 79l-3.5-.2c-2.7-.2-4.8-2.3-5-5l-.2-4c0-.2-.2-.4-.5-.4h-.1c-.2 0-.5.2-.5.4l-.2 4c-.2 2.7-2.3 4.8-5 5l-3.4.2c-.2 0-.4.2-.5.4 0 .3.2.5.4.5l3.5.2c2.7.2 4.8 2.3 5 5l.2 4c0 .2.2.4.5.4h.1c.2 0 .5-.2.5-.4l.2-4c.2-2.7 2.3-4.8 5-5l3.5-.2c.3 0 .5-.3.4-.5 0-.2-.2-.4-.4-.4z" class="s5wmy3" style="animation-delay:-.545s"/><path d="M21.4 14.3l-1.4-.1c-1.1-.1-1.9-.9-2-2l-.1-1.6c0-.1-.1-.2-.2-.2s-.2.1-.2.2l-.1 1.6c-.1 1.1-.9 1.9-2 2l-1.4.1c-.1 0-.2.1-.2.2s.1.2.2.2l1.4.1c1.1.1 1.9.9 2 2l.1 1.6c0 .1.1.2.2.2s.2-.1.2-.2l.1-1.6c.1-1.1.9-1.9 2-2l1.4-.1c.1 0 .2-.1.2-.2 0-.2-.1-.2-.2-.2z" class="s5wmy3" style="animation-delay:-.5s"/><path d="M87.8 19.3l-2.3-.2c-1.8-.1-3.2-1.6-3.4-3.4l-.2-2.7c0-.2-.1-.3-.3-.3h-.1c-.2 0-.3.1-.3.3l-.2 2.7c-.1 1.8-1.5 3.3-3.4 3.4l-2.3.2c-.1 0-.3.1-.3.3 0 .2.1.4.3.4l2.4.2c1.8.1 3.2 1.6 3.4 3.4l.2 2.7c0 .2.1.3.3.3h.1c.2 0 .3-.1.3-.3l.2-2.7c.1-1.8 1.5-3.3 3.4-3.4L88 20c.2 0 .3-.2.3-.4-.2-.2-.3-.3-.5-.3z" class="s5wmy3" style="animation-delay:-.455s"/></g></svg>