<svg xmlns="http://www.w3.org/2000/svg" viewBox="0 0 100 100"><g fill="none" stroke="#000"><animateTransform attributeName="transform" begin="-.1" calcMode="spline" dur="1" keySplines=".5 0 .5 1" repeatCount="indefinite" type="rotate" values="360 50 50;0 50 50"/><circle cx="50" cy="50" r="39.891" stroke="#8cc63f" stroke-width="14.4"><animate attributeName="stroke-dasharray" begin="-.046" dur="1" repeatCount="indefinite" values="15 300;55 300;15 300"/></circle><circle cx="50" cy="50" r="39.891" stroke="#fff794" stroke-width="7.2"><animate attributeName="stroke-dasharray" begin="-.046" dur="1" repeatCount="indefinite" values="15 300;55 300;15 300"/></circle><circle cx="50" cy="50" r="32.771"><animate attributeName="stroke-dasharray" begin="-.046" dur="1" repeatCount="indefinite" values="15 300;45 300;15 300"/></circle><circle cx="50" cy="50" r="47.171"><animate attributeName="stroke-dasharray" begin="-.046" dur="1" repeatCount="indefinite" values="15 300;66 300;15 300"/></circle></g><g fill="#8cc63f" stroke="#000"><animateTransform attributeName="transform" calcMode="spline" dur="1" keySplines=".5 0 .5 1" repeatCount="indefinite" type="rotate" values="360 50 50;0 50 50"/><path fill="#009245" d="M87.6 67.8c.5 0 1.1-.2 1.4-.7.2-.4.3-.8.4-1.2-1.6-.7-3.3-1.4-4.9-2-.2-.1-.6 1.2-.5 1.5 0 .4.2.6.5.9.7.9 1.9 1.6 3.1 1.5z"/><path d="M97.2 50c0 6.1-1.2 12.2-3.5 17.8l-13.3-5.4c1.6-3.9 2.4-8.2 2.4-12.4"/><path fill="#fff794" stroke="none" d="M93.6 49.8c0 1.2 0 2.4-.1 3.6L93 57c-.4 2-2.3 3.3-4.1 2.8l-.2-.1c-1.8-.5-3.1-2.3-2.7-3.9l.4-3c.1-1 .1-2 .1-3"/><path d="M85.4 62.5c-.2.7-.5 1.4-.8 2.1-.3.7-.6 1.4-.9 2-.6 1.1-2 1.4-3.2.8-1.1-.7-1.7-2-1.2-2.9.3-.6.5-1.2.8-1.8.2-.6.6-1.2.7-1.8m13.7 4.8c-.3.9-.7 1.7-1 2.6-.4.8-.7 1.7-1.1 2.5-.7 1.4-2.3 1.9-3.4 1.3-1.1-.7-1.5-2.2-.9-3.4.4-.8.7-1.5 1-2.3.3-.8.7-1.5.9-2.3"/></g><g fill="#fceca6" stroke="#000"><animateTransform attributeName="transform" begin="-.1" calcMode="spline" dur="1" keySplines=".5 0 .5 1" repeatCount="indefinite" type="rotate" values="360 50 50;0 50 50"/><path fill="#8cc63f" d="M82.8 50.2c0-3.4-.5-6.8-1.5-10-.2-.8-.4-1.5-.3-2.3.1-.8.4-1.6.7-2.4.7-1.5 1.9-3.1 3.7-4 1.8-.9 3.7-1 5.6-.3.9.4 1.7 1 2.4 1.8s1.3 1.7 1.7 2.8c1.5 4.6 2.2 9.5 2.2 14.4"/><path fill="#fff794" stroke="none" d="M86.4 50.3v-.9l-.1-.9-.1-1.9c0-.9.2-1.7.7-2.3.5-.7 1.3-1.2 2.3-1.4h.3c.9-.2 1.9 0 2.6.6.7.5 1.3 1.4 1.4 2.4l.2 2.2.1 1.1v1.1"/><path fill="#ff7bac" stroke="none" d="M93.5 35.1c.1.3-.3.8-.9 1-.6.2-1.2.1-1.4-.2-.1-.3.3-.8.9-1 .6-.3 1.3-.2 1.4.2zM82.1 39c.1.3.7.3 1.3.1.6-.2 1.1-.6 1-.9-.1-.3-.7-.3-1.3-.1-.6.2-1.1.6-1 .9z"/><path fill="#8cc63f" d="M86.9 43c.2 1.2.5 2.4.5 3.7.1 1.2-.9 2.3-2.2 2.3-1.3 0-2.5-.8-2.5-1.9l-.1-1c0-.3-.1-.6-.2-1l-.3-1.9m14.1-2.9l.5 2.7c.1.5.2.9.2 1.4l.1 1.4c.1 1.5-.9 2.8-2.2 2.8-1.3 0-2.5-1.1-2.6-2.4 0-1.4-.3-2.8-.6-4.1"/><path fill="#000" stroke="none" d="M91.4 34.6c.3.7 0 1.4-.7 1.6-.6.2-1.3-.1-1.6-.8-.2-.6.1-1.3.7-1.6.6-.2 1.3.1 1.6.8zm-5.7 2.1c.2.6-.1 1.2-.7 1.4-.6.2-1.3-.1-1.5-.6-.2-.5.1-1.2.7-1.4.6-.3 1.3 0 1.5.6z"/><path d="M86 39.5v.3c.2.8 1.5 1.2 2.9.9 1.4-.3 2.3-1.3 2-2.3 0-.1-.1-.2-.2-.4-.5.5-1.3.9-2.2 1.2-.9.3-1.8.4-2.5.3z"/><path d="M88 37.6c-1.1.4-2 1.2-2 1.9.7.1 1.6 0 2.5-.2.9-.3 1.7-.7 2.2-1.2-.4-.7-1.5-.9-2.7-.5z"/><path fill="#009245" d="M81.9 33.7c-.3.9-.7 1.4-1.3 2.2.8-.2 1.5-.4 2.2-.9.2.5.2 1 .1 1.6.6-.6 1.3-1.3 1.9-2 .3.4.4.9.5 1.4.4-.6.8-1.3 1-2.1.6.3 1.3.7 1.7 1.2v-1.9c.6.1 1.6.3 2.2.7-.2-.6-.2-1.6-.5-2.2 1 .2 1.9-.6 2.3-1-.9-.3-2.1-.6-2.9-1.1"/><path d="M89.2 29.7c.4.8-.9 2.3-3 3.3s-4.1 1.2-4.4.6c-.3-.7 1-2.1 3-3.3 2-1.2 4-1.4 4.4-.6z"/></g></svg>