<svg xmlns="http://www.w3.org/2000/svg" viewBox="0 0 100 100"><defs><style>@keyframes s5yemn{49.9%{transform:translateY(-100px)}50%{transform:translateY(100px);animation-timing-function:cubic-bezier(0,.5,.5,1)}}.s5yemn{animation:s5yemn 1s infinite}</style></defs><path fill="#e15b64" d="M80 41.126c0 17.814-25.054 37.341-30 37.341S20 58.939 20 41.126c0-19.769 30-19.769 30-1.04 0-18.729 30-18.729 30 1.04z" class="s5yemn" style="animation-delay:-.842s"/><g fill="#f47e60"><path d="M81.771 25.349c0 6.729-9.463 14.105-11.332 14.105s-11.332-7.376-11.332-14.105c0-7.467 11.332-7.467 11.332-.393 0-7.074 11.332-7.074 11.332.393z" class="s5yemn" style="animation-delay:-.947s"/><path d="M39.188 59.999c0 7.583-10.665 15.896-12.771 15.896s-12.771-8.313-12.771-15.896c0-8.415 12.771-8.415 12.771-.443 0-7.972 12.771-7.972 12.771.443z" class="s5yemn" style="animation-delay:-.895s"/><path d="M90.813 66.167c0 9.748-13.71 20.434-16.417 20.434-2.707 0-16.417-10.686-16.417-20.434 0-10.818 16.417-10.818 16.417-.569 0-10.249 16.417-10.249 16.417.569z" class="s5yemn" style="animation-delay:-.789s"/><path d="M35.646 22.546c0 7.855-11.048 16.466-13.229 16.466S9.188 30.402 9.188 22.546c0-8.717 13.229-8.717 13.229-.459 0-8.258 13.229-8.258 13.229.459z" class="s5yemn" style="animation-delay:-.737s"/></g><g fill="#f8b26a"><path d="M23.813 74.608c0 3.365-4.732 7.053-5.667 7.053-.934 0-5.667-3.689-5.667-7.053 0-3.734 5.667-3.734 5.667-.197 0-3.537 5.667-3.537 5.667.197z" class="s5yemn" style="animation-delay:-.684s"/><path d="M86.979 42.136c0 3.513-4.941 7.364-5.917 7.364s-5.917-3.851-5.917-7.364c0-3.899 5.917-3.899 5.917-.205.001-3.694 5.917-3.694 5.917.205z" class="s5yemn" style="animation-delay:-.632s"/><path d="M45.552 70.525c0 3.779-5.315 7.922-6.365 7.922s-6.365-4.143-6.365-7.922c0-4.194 6.365-4.194 6.365-.221.001-3.973 6.365-3.973 6.365.221z" class="s5yemn" style="animation-delay:-.579s"/><path d="M37.813 15.887c0 2.963-4.167 6.211-4.99 6.211s-4.99-3.248-4.99-6.211c0-3.288 4.99-3.288 4.99-.173 0-3.115 4.99-3.115 4.99.173z" class="s5yemn" style="animation-delay:-.526s"/></g></svg>