<svg xmlns="http://www.w3.org/2000/svg" viewBox="0 0 100 100"><g fill="none" stroke="#000"><animateTransform attributeName="transform" begin="-.1" calcMode="spline" dur="1" keySplines=".5 0 .5 1" repeatCount="indefinite" type="rotate" values="360 50 50;0 50 50"/><circle cx="50" cy="50" r="39.891" stroke="#fac8dd" stroke-width="14.4"><animate attributeName="stroke-dasharray" begin="-.046" dur="1" repeatCount="indefinite" values="15 300;55 300;15 300"/></circle><circle cx="50" cy="50" r="39.891" stroke="#fff" stroke-width="7.2"><animate attributeName="stroke-dasharray" begin="-.046" dur="1" repeatCount="indefinite" values="15 300;55 300;15 300"/></circle><circle cx="50" cy="50" r="32.771"><animate attributeName="stroke-dasharray" begin="-.046" dur="1" repeatCount="indefinite" values="15 300;45 300;15 300"/></circle><circle cx="50" cy="50" r="47.171"><animate attributeName="stroke-dasharray" begin="-.046" dur="1" repeatCount="indefinite" values="15 300;66 300;15 300"/></circle></g><g fill="#fac8dd" stroke="#000"><animateTransform attributeName="transform" calcMode="spline" dur="1" keySplines=".5 0 .5 1" repeatCount="indefinite" type="rotate" values="360 50 50;0 50 50"/><path d="M97.2 50c0 6.2-1.2 12.3-3.6 18l-13.3-5.5c1.6-4 2.5-8.2 2.5-12.5"/><path fill="#fff" stroke="none" d="M93.6 49.8c0 1.2 0 2.4-.1 3.7l-.5 3.6c-.4 2.1-2.3 3.3-4.2 2.8l-.2-.1c-1.9-.5-3-2.3-2.7-3.9l.4-3c.1-1 .1-2 .1-3.1"/><path fill="none" d="M87.1 65.4c-.1.3-.2.9-.4 1.2-.2.2-.5.4-.8.3-.1 0-.3-.1-.4-.2-.1-.2-.1-.4.1-.6.2-.2.4-.3.6-.2l.3.3c.2.3.3.8.1 1.2-.1.4-.5.7-.9.8"/><path d="M85.4 62.7c-.2.7-.5 1.4-.8 2.1-.3.7-.6 1.4-.9 2-.3.5-1 1.2-1.5 1.3-1.1.2-.7-.8-1.3-1.1-.6-.3-1.2.4-1.6-.6-.2-.5-.1-1.3.2-1.8.3-.6.5-1.2.8-1.8.2-.6.6-1.2.7-1.8m13.4 4.9c-.3.9-.7 1.7-1 2.6-.4.9-.7 1.7-1.1 2.6-.4.7-1.1 1.5-1.8 1.7-1.2.4-.7-.9-1.3-1.2-.6-.3-1.4.7-1.7-.5-.2-.6.1-1.6.4-2.2.4-.8.7-1.5 1-2.3.3-.8.7-1.5.9-2.3"/></g><g fill="#fac8dd"><animateTransform attributeName="transform" begin="-.1" calcMode="spline" dur="1" keySplines=".5 0 .5 1" repeatCount="indefinite" type="rotate" values="360 50 50;0 50 50"/><path fill="#fff" stroke="#000" d="M88.9 30.8c0-.5-.2-1-.2-1.5s.2-1.1.6-1.3c.4-.2.8-.1 1.2 0 .6.2 1.2.5 1.8.9l.3.3c.1.2 0 .3 0 .5l-.3 1.5c-.1.5-.1 1-.1 1.5-1.1-.8-2.2-1.3-3.3-1.9zm-6.1 3c-.4-.3-.7-.6-1-.8-.4-.2-.9-.3-1.3-.1-.4.2-.6.6-.7.9-.2.5-.4 1.1-.5 1.6v.3c.1.1.2.1.4.2.4.1.8.2 1.2.4.4.2.7.4 1 .6.3-1 .6-2 .9-3.1z"/><path stroke="#000" d="M97.2 50.3c0-4.9-.8-9.8-2.3-14.5-.4-1.1-1-2.1-1.8-3-.4-.4-.8-.8-1.2-1.1-.4-.3-.9-.5-1.4-.7-1.1-.4-2.3-.5-3.4-.3-.6.1-1.3.3-1.8.7-.6.3-1.1.7-1.6 1.1-.9.8-1.5 1.7-2 2.7-.2.4-.3.8-.4 1.2-.1.4-.2.8-.3 1.3-.1.8 0 1.7.3 2.4 1 3.3 1.5 6.6 1.6 10"/><path fill="#fff" d="M86.4 50.3c0-.6 0-1.3-.1-1.9l-.1-1.9c0-.4 0-.8.1-1.2.1-.4.3-.8.6-1.1.5-.7 1.3-1.2 2.3-1.4h.3c.9-.2 1.9 0 2.6.6.4.3.7.6.9 1 .3.4.4.9.4 1.4l.2 2.2c.1.7.1 1.5.1 2.3"/><path stroke="#000" d="M86.8 42.2l.4 2.2.2 1.1.1 1.1c0 .6-.2 1.5-.6 1.9-.8.8-1.1-.3-1.7-.2-.7 0-.8 1-1.7.4-.5-.3-.8-1.1-.8-1.6l-.1-1-.2-1-.3-1.9m14.1-3l.5 2.8.2 1.4.1 1.4c.1.8-.1 1.9-.5 2.4-.8 1-1.1-.4-1.7-.3-.7 0-.8 1.3-1.7.5-.5-.4-.8-1.4-.9-2.1l-.1-1.3-.2-1.2-.4-2.5"/><path fill="#dbc08e" stroke="#000" d="M89.7 36.7c.3.8-.4 1.8-1.4 2.1-1 .3-2-.1-2.2-.9-.3-.7.3-1.6 1.2-2 1.1-.4 2.1 0 2.4.8z"/><path fill="#000" stroke="#000" d="M87.5 37.3l.1.3m.8-.6l.1.3"/><path fill="#ff7bac" d="M92.4 33.9c.1.3-.3.8-.9 1-.6.2-1.2.1-1.4-.2-.1-.3.3-.8.9-1 .6-.3 1.3-.2 1.4.2zm-10.1 3.8c.1.3.7.3 1.3.1.6-.2 1-.6.9-.9-.1-.3-.7-.3-1.3-.1-.6.2-1 .6-.9.9z"/><path fill="#000" d="M84.9 35.6c.2.5-.1 1-.6 1.2-.5.2-1 0-1.2-.5-.2-.4.1-1 .6-1.2.5-.1 1 .1 1.2.5zm5.8-2.4c.2.5 0 1.1-.5 1.3-.5.2-1.1-.1-1.3-.6-.2-.5 0-1.1.5-1.3.5-.2 1.1.1 1.3.6z"/></g></svg>