<svg xmlns="http://www.w3.org/2000/svg" viewBox="0 0 100 100"><defs><style>@keyframes s5ynu2{0%,40%{transform:translate(1px,1px)}35%,5%{transform:translate(0,1px)}10%,25%,55%{transform:translate(1px,2px)}15%,50%{transform:translate(2px,1px)}20%,70%{transform:translate(3px,0)}30%{transform:translate(1px,3px)}45%,85%{transform:translate(1px,0)}60%{transform:translate(3px,1px)}65%,90%{transform:translate(0,2px)}75%{transform:translate(0,0)}80%{transform:translate(2px,3px)}95%{transform:translate(3px,2px)}}.s5ynu2{stroke:#333;stroke-width:3.5;animation:s5ynu2 1s infinite}</style></defs><path fill="none" d="M50 18v32" class="s5ynu2" style="animation-delay:-.955s"/><circle cx="50" cy="18" r="8" fill="#e15c64" class="s5ynu2" style="animation-delay:-.909s"/><g fill="#666766"><path d="M78.857 78.057h-1.023a6.69 6.69 0 0 1-6.69-6.69V57.366a6.69 6.69 0 0 1 6.69-6.69h1.023a6.69 6.69 0 0 1 6.69 6.69v14.002a6.69 6.69 0 0 1-6.69 6.689z" class="s5ynu2" style="animation-delay:-.864s"/><path d="M21.143 78.057h1.023a6.69 6.69 0 0 0 6.69-6.69V57.366a6.69 6.69 0 0 0-6.69-6.69h-1.023a6.69 6.69 0 0 0-6.69 6.69v14.002a6.69 6.69 0 0 0 6.69 6.689z" class="s5ynu2" style="animation-delay:-.818s"/></g><path fill="#e0e0e0" d="M71.646 90H28.354a5.133 5.133 0 0 1-5.133-5.133V41.399a5.133 5.133 0 0 1 5.133-5.133h43.293a5.133 5.133 0 0 1 5.133 5.133v43.468A5.134 5.134 0 0 1 71.646 90z" class="s5ynu2" style="animation-delay:-.773s"/><g fill="#fff"><path d="M37.944 69.948a6.057 6.057 0 0 0 0 12.114h1.658V69.948h-1.658z" class="s5ynu2" style="animation-delay:-.727s"/><path d="M39.602 69.948h6.932v12.115h-6.932z" class="s5ynu2" style="animation-delay:-.682s"/><path d="M46.534 69.948h6.932v12.115h-6.932z" class="s5ynu2" style="animation-delay:-.636s"/><path d="M62.056 69.948h-1.658v12.115h1.658a6.057 6.057 0 1 0 0-12.115z" class="s5ynu2" style="animation-delay:-.591s"/><path d="M53.466 69.948h6.932v12.115h-6.932z" class="s5ynu2" style="animation-delay:-.545s"/></g><g fill="#acbd81"><circle cx="38" cy="53" r="6" class="s5ynu2" style="animation-delay:-.5s"/><circle cx="62" cy="53" r="6" class="s5ynu2" style="animation-delay:-.455s"/></g></svg>