<svg xmlns="http://www.w3.org/2000/svg" viewBox="0 0 100 100"><defs><mask id="s5ypcf"><path fill="#fff" d="M5 5h90v90H5z"/><text x="50" y="50" fill="#000" dominant-baseline="central" font-family="arial" font-size="20" font-weight="900" text-anchor="middle">Loading</text></mask></defs><path fill="none" stroke="#ab3b3a" stroke-width="4" d="M2.7 10.8c5.2-3 6.3-5.7 11.5-8.6C8.5 6.2 7.4 13 3.7 18.9 10 12.9 16.6 6.8 24 2.2c-6.5 5.2-9.7 12.1-15 18.5 7.3-4.8 13.1-12.3 20.4-17.2-11.2 7.6-18.9 18.2-27.1 29C13.4 21.2 23.8 11.4 37.1 2.7 24.1 12.3 12.2 26.9 2 39.5c14.1-11 29-25.8 43.2-36.8-13.8 11.7-30.1 30.8-42.5 44C17.2 36.6 38.5 13.9 51.5 2 37.1 15.4 17.7 39.1 3.3 52.5 21 38.1 40.3 18.3 58 4 39.3 20.9 21.3 40.3 2.7 57.2 24.9 40 45.7 20.1 67.9 2.9c-23.1 19.8-46.1 39-65.2 62.8 22-21.1 46.6-42.5 70.9-61.1-17.8 15.2-35.2 37.3-52.9 52.5-5 4.3-15.4 12.6-17.6 18.8C25.6 55.6 57.6 22.6 81.2 3.5 54.8 25.7 26.4 59 3.1 84.3c28-24.7 54.5-59.6 85.2-80.8C59.8 26.4 26.3 64 3.1 92.4 29.4 69.5 67.6 26.8 93.9 4 65.5 31.7 28.5 75.4 2.3 105.2 33.8 72 66.9 30.4 104.9 4.9c-31.3 29.8-66 68-95 100.6C42 76.3 70.8 43 105.4 16.8c-29.8 25.7-63.3 59.3-87.9 90 25.8-22 59-56.5 84.9-78.5-25 21.4-56 53.8-77.7 78.5 25-20.7 53.8-49.4 78.8-70.1-25.2 21.6-49.3 47.4-71.7 72 24.7-19.4 46.9-44.2 71.7-63.5C81.4 63.1 61.6 86.6 44 108.8c20-15.2 38.4-36.5 58.4-51.7-14.6 11.1-34.8 37-47.2 50.6 13.6-9.1 34.1-30.2 46.9-40.4-12.1 8.5-27.3 28.4-36.7 39.8 12.8-7.4 27.7-23.9 38.9-33.4-12 9.3-20.8 21.8-31.6 32.6 11-6.6 21.6-15.8 30.9-24.6-8 6.3-16.2 16.6-21.8 25.2 8.8-5.6 17.8-10.3 21.4-15.9-1.3 4.1-4.8 9.2-10.1 15.2 3.1-.4 7.7-.6 10.8-1" mask="url(#s5ypcf)"><animate attributeName="stroke-dasharray" calcMode="spline" dur="2" keySplines=".7 0 .3 1;.7 0 .3 1" repeatCount="indefinite" values="0 0 0 3390;0 0 3390 0;0 3390 3390 0"/></path></svg>